<?xml version="1.0" encoding="UTF-8"?>
<svg xmlns="http://www.w3.org/2000/svg" xmlns:xlink="http://www.w3.org/1999/xlink" width="1544pt" height="240.35pt" viewBox="0 0 1544 240.35" version="1.1">
<defs>
<clipPath id="clip1">
  <path d="M 1154.359375 45.699219 L 1544 45.699219 L 1544 240.351563 L 1154.359375 240.351563 Z M 1154.359375 45.699219 "/>
</clipPath>
<clipPath id="clip2">
  <path d="M 0 0 L 323 0 L 323 191.941406 L 0 191.941406 Z M 0 0 "/>
</clipPath>
</defs>
<g id="surface1">
<path style=" stroke:none;fill-rule:nonzero;fill:rgb(77.2995%,17.999268%,25.099182%);fill-opacity:1;" d="M 607.945313 191.136719 L 607.945313 79.742188 C 619.730469 79.742188 704.847656 79.742188 704.847656 79.742188 L 730.871094 79.976563 L 761.230469 81.203125 C 775.640625 82.789063 779.34375 86.535156 779.34375 99.230469 C 779.34375 105.320313 778.367188 107.289063 776.761719 110.90625 C 774.878906 114.84375 769.589844 116.597656 763.324219 117.339844 L 692.152344 117.339844 L 763.367188 151.148438 C 763.367188 151.148438 764.402344 151.277344 764.214844 151.234375 C 772.613281 151.402344 791.484375 150.894531 802.46875 139.746094 C 806.253906 135.9375 810.550781 131.21875 813.765625 124.257813 C 816.894531 117.445313 818.484375 109.320313 818.484375 100.160156 C 818.484375 78.429688 809.429688 51.621094 766.308594 47.433594 C 755.242188 46.417969 735.207031 45.910156 705.164063 45.910156 L 588.394531 45.910156 C 570.726563 45.910156 568.84375 56.152344 568.84375 60.59375 L 568.84375 191.136719 L 607.945313 191.136719 "/>
<path style=" stroke:none;fill-rule:nonzero;fill:rgb(77.2995%,17.999268%,25.099182%);fill-opacity:1;" d="M 905.589844 47.644531 C 881.40625 50.226563 865.390625 58.691406 857.984375 72.84375 C 853.097656 82.324219 850.707031 96.835938 850.707031 117.316406 C 850.707031 135.726563 851.742188 148.144531 853.984375 155.191406 C 857.496094 167.734375 864.671875 176.855469 875.292969 182.1875 C 884.15625 186.757813 897.804688 189.507813 916.84375 190.648438 C 917.015625 190.648438 950.613281 191.582031 950.613281 191.582031 L 993.457031 191.835938 C 1025.089844 191.835938 1047.160156 191.136719 1058.960938 189.847656 C 1075.25 187.898438 1086.851563 184.601563 1094.53125 179.648438 C 1102.628906 174.421875 1108.320313 166.128906 1111.5 154.9375 C 1114.011719 146.515625 1115.300781 134.601563 1115.300781 118.84375 C 1115.300781 107.097656 1114.480469 96.964844 1113 88.734375 C 1110.289063 74.15625 1105.339844 64.339844 1097.960938 58.691406 C 1090.320313 52.871094 1076.75 49.0625 1056.488281 47.136719 C 1042.160156 45.785156 1019.96875 45.128906 990.453125 45.128906 C 949.914063 45.128906 921.394531 45.996094 905.589844 47.644531 Z M 938.679688 77.183594 C 938.742188 77.183594 988.296875 76.503906 988.296875 76.503906 C 1018.378906 76.503906 1039.5 77.183594 1051.03125 78.367188 C 1064.800781 79.933594 1069.601563 82.324219 1071.320313 83.679688 C 1072.269531 84.460938 1074.679688 87.125 1076.25 95.714844 C 1077.410156 101.765625 1078.039063 107.414063 1078.039063 118.84375 C 1078.039063 132.847656 1077.03125 139.023438 1075.320313 144.929688 C 1074.050781 148.992188 1072.078125 151.953125 1069.648438 153.5625 C 1067.660156 154.851563 1063.148438 156.691406 1053.398438 157.835938 C 1043.21875 159.082031 1022.929688 159.695313 993.203125 159.695313 L 951.355469 159.167969 L 919.722656 158.320313 C 906.859375 157.558594 900.871094 155.867188 898.121094 154.640625 C 894.058594 152.863281 891.539063 149.753906 890.082031 144.929688 C 888.789063 140.78125 887.902344 134.644531 887.902344 118.121094 C 887.902344 101.894531 889.296875 92.289063 892.34375 86.914063 C 895.328125 81.644531 904.085938 79.679688 910.792969 78.917969 C 910.582031 78.9375 938.679688 77.183594 938.679688 77.183594 "/>
<g clip-path="url(#clip1)" clip-rule="nonzero">
<path style=" stroke:none;fill-rule:nonzero;fill:rgb(77.2995%,17.999268%,25.099182%);fill-opacity:1;" d="M 1154.738281 191.285156 L 1154.738281 60.910156 C 1154.421875 56.152344 1156.328125 45.910156 1174.019531 45.910156 L 1290.738281 45.910156 C 1320.828125 45.910156 1340.820313 46.417969 1351.929688 47.433594 C 1395.050781 51.621094 1404.078125 78.429688 1404.078125 100.117188 C 1404.078125 109.320313 1402.519531 117.445313 1399.390625 124.234375 C 1396.191406 131.21875 1391.859375 135.9375 1388.070313 139.746094 C 1387.519531 140.339844 1386.570313 140.675781 1385.96875 141.164063 C 1394.289063 147.59375 1543.449219 240.117188 1543.769531 240.351563 L 1291.441406 118.546875 L 1352.421875 118.546875 C 1358.300781 117.742188 1360.820313 114.992188 1362.589844 111.226563 C 1364.269531 107.542969 1364.941406 105.320313 1364.941406 99.230469 C 1364.941406 86.535156 1361.261719 82.789063 1346.808594 81.203125 L 1316.511719 79.976563 L 1290.449219 79.742188 L 1193.570313 79.742188 L 1193.570313 191.136719 L 1154.738281 191.285156 "/>
</g>
<g clip-path="url(#clip2)" clip-rule="nonzero">
<path style=" stroke:none;fill-rule:nonzero;fill:rgb(77.2995%,17.999268%,25.099182%);fill-opacity:1;" d="M 272.445313 45.339844 L 195.136719 142.941406 C 189.722656 149.984375 184.324219 152.355469 179.394531 152.480469 C 174.527344 152.355469 168.730469 151.128906 162.152344 144.1875 L -0.296875 -0.148438 L 146.75 180.621094 C 152.3125 187.140625 155.171875 190.96875 161.601563 191.03125 L 179.375 191.285156 L 179.4375 191.285156 L 197.1875 191.03125 C 203.601563 190.96875 206.476563 187.140625 212.085938 180.621094 L 322.972656 45.339844 L 272.445313 45.339844 "/>
</g>
<path style=" stroke:none;fill-rule:nonzero;fill:rgb(77.2995%,17.999268%,25.099182%);fill-opacity:1;" d="M 434.304688 55.941406 C 428.71875 49.402344 425.859375 45.574219 419.472656 45.550781 L 402.523438 45.320313 L 401.636719 45.320313 L 384.6875 45.550781 C 378.257813 45.574219 375.359375 49.402344 369.773438 55.941406 L 258.90625 191.285156 L 309.410156 191.285156 L 386.742188 93.621094 C 392.007813 86.828125 397.277344 84.355469 402.039063 84.164063 C 406.839844 84.355469 412.066406 86.828125 417.378906 93.621094 L 494.707031 191.285156 L 545.191406 191.285156 L 434.304688 55.941406 "/>
</g>
</svg>
